<svg id="Layer_1" data-name="Layer 1" xmlns="http://www.w3.org/2000/svg" viewBox="0 0 284.84 85.84"><defs><style>.cls-1{fill:#bbccda;fill-rule:evenodd;}</style></defs><title>amazon</title><path class="cls-1" d="M340.29,330.21c-16.55,12.21-40.54,18.71-61.2,18.71a110.77,110.77,0,0,1-74.77-28.52c-1.55-1.4-.16-3.31,1.7-2.23A150.45,150.45,0,0,0,280.83,338a148.86,148.86,0,0,0,57.06-11.68C340.68,325.16,343,328.19,340.29,330.21Z" transform="translate(-163.58 -263.08)"/><path class="cls-1" d="M347.18,322.35c-2.12-2.71-14-1.29-19.33-.65-1.62.2-1.87-1.21-.41-2.24,9.47-6.65,25-4.73,26.8-2.5s-.48,17.81-9.35,25.23c-1.37,1.15-2.67.54-2.06-1C344.82,336.23,349.3,325.06,347.18,322.35Z" transform="translate(-163.58 -263.08)"/><path class="cls-1" d="M328.23,272.46V266a1.6,1.6,0,0,1,1.64-1.64h29a1.63,1.63,0,0,1,1.68,1.63v5.55c0,.93-.79,2.14-2.18,4.07l-15,21.43c5.57-.13,11.47.7,16.53,3.55a3,3,0,0,1,1.54,2.52V310a1.55,1.55,0,0,1-2.14,1.48,33.36,33.36,0,0,0-30.61.06c-1,.53-2.07-.55-2.07-1.5v-6.56a7.78,7.78,0,0,1,1.08-4.44l17.39-25H329.9A1.6,1.6,0,0,1,328.23,272.46Z" transform="translate(-163.58 -263.08)"/><path class="cls-1" d="M222.52,312.84h-8.81a1.67,1.67,0,0,1-1.58-1.49V266.1a1.67,1.67,0,0,1,1.7-1.63h8.21a1.66,1.66,0,0,1,1.6,1.52v5.91h.17c2.14-5.72,6.17-8.38,11.6-8.38s9,2.66,11.44,8.38a13,13,0,0,1,22.38-3.43c2.8,3.81,2.22,9.33,2.22,14.19v28.55a1.67,1.67,0,0,1-1.7,1.63H261a1.66,1.66,0,0,1-1.58-1.63v-24c0-1.91.16-6.67-.25-8.48-.66-3-2.63-3.9-5.18-3.9a5.85,5.85,0,0,0-5.27,3.71c-.91,2.29-.82,6.1-.82,8.67v24a1.67,1.67,0,0,1-1.7,1.63h-8.81a1.65,1.65,0,0,1-1.58-1.63v-24c0-5.05.82-12.48-5.43-12.48s-6.09,7.24-6.09,12.48v24A1.67,1.67,0,0,1,222.52,312.84Z" transform="translate(-163.58 -263.08)"/><path class="cls-1" d="M385.46,263.52c13.09,0,20.16,11.23,20.16,25.52,0,13.8-7.81,24.75-20.16,24.75-12.84,0-19.83-11.23-19.83-25.23S372.7,263.52,385.46,263.52Zm.08,9.23c-6.5,0-6.91,8.86-6.91,14.38s-.08,17.33,6.83,17.33,7.16-9.52,7.16-15.33c0-3.81-.16-8.38-1.32-12C390.31,274,388.34,272.75,385.54,272.75Z" transform="translate(-163.58 -263.08)"/><path class="cls-1" d="M422.59,312.84h-8.78a1.65,1.65,0,0,1-1.58-1.63l0-45.26a1.68,1.68,0,0,1,1.69-1.48h8.18a1.68,1.68,0,0,1,1.57,1.27v6.92h.16c2.47-6.19,5.93-9.14,12-9.14a11.57,11.57,0,0,1,10.29,5.33c2.3,3.62,2.3,9.71,2.3,14.09v28.47a1.67,1.67,0,0,1-1.69,1.43h-8.84a1.67,1.67,0,0,1-1.57-1.43V286.85c0-5,.58-12.19-5.51-12.19a5.76,5.76,0,0,0-5.1,3.62,20,20,0,0,0-1.4,8.57v24.36A1.7,1.7,0,0,1,422.59,312.84Z" transform="translate(-163.58 -263.08)"/><path class="cls-1" d="M305.13,291.23c0,3.44.08,6.3-1.65,9.35a7.18,7.18,0,0,1-6.11,4c-3.38,0-5.36-2.58-5.36-6.39,0-7.51,6.74-8.88,13.12-8.88Zm8.88,21.5a1.83,1.83,0,0,1-2.08.2,21.48,21.48,0,0,1-5.05-5.87c-4.84,4.93-8.27,6.4-14.54,6.4-7.42,0-13.19-4.58-13.19-13.74a15,15,0,0,1,9.4-14.41c4.78-2.09,11.46-2.48,16.58-3.05v-1.14c0-2.1.16-4.58-1.08-6.4a5.88,5.88,0,0,0-4.94-2.29c-3.37,0-6.36,1.73-7.09,5.3a1.86,1.86,0,0,1-1.53,1.62l-8.55-.93a1.54,1.54,0,0,1-1.31-1.84c2-10.37,11.32-13.5,19.71-13.5,4.29,0,9.9,1.15,13.28,4.39,4.29,4,3.88,9.35,3.88,15.17v13.74c0,4.13,1.71,5.94,3.32,8.17a1.66,1.66,0,0,1,0,2.34c-1.81,1.51-5,4.29-6.77,5.86Z" transform="translate(-163.58 -263.08)"/><path class="cls-1" d="M189.56,291.23c0,3.44.08,6.3-1.65,9.35a7.16,7.16,0,0,1-6.1,4c-3.39,0-5.37-2.58-5.37-6.39,0-7.51,6.74-8.88,13.12-8.88Zm8.89,21.5a1.85,1.85,0,0,1-2.09.2,21.48,21.48,0,0,1-5.05-5.87c-4.84,4.93-8.27,6.4-14.54,6.4-7.42,0-13.19-4.58-13.19-13.74a15,15,0,0,1,9.4-14.41c4.78-2.09,11.46-2.48,16.58-3.05v-1.14c0-2.1.16-4.58-1.07-6.4a5.91,5.91,0,0,0-5-2.29c-3.36,0-6.35,1.73-7.09,5.3a1.86,1.86,0,0,1-1.53,1.62l-8.54-.93a1.54,1.54,0,0,1-1.32-1.84c2-10.37,11.32-13.5,19.71-13.5,4.29,0,9.9,1.15,13.28,4.39,4.29,4,3.88,9.35,3.88,15.17v13.74c0,4.13,1.71,5.94,3.33,8.17a1.67,1.67,0,0,1,0,2.34c-1.8,1.51-5,4.29-6.76,5.86Z" transform="translate(-163.58 -263.08)"/></svg>