<svg xmlns="http://www.w3.org/2000/svg" viewBox="0 0 30 48"><title>Asset 2</title><g id="Layer_2" data-name="Layer 2"><g id="Icons"><path d="M15,24a9,9,0,1,1,9-9A9,9,0,0,1,15,24ZM15,8a7,7,0,1,0,7,7A7,7,0,0,0,15,8Z"/><path d="M15,30A15,15,0,1,1,30,15,15,15,0,0,1,15,30ZM15,2A13,13,0,1,0,28,15,13,13,0,0,0,15,2Z"/><path d="M5,42a.84.84,0,0,1-.38-.08A1,1,0,0,1,4,41V25a1,1,0,0,1,2,0V38.59l4.29-4.3a1,1,0,0,1,1.42,0l2,2a1,1,0,0,1-1.42,1.42L11,36.41l-5.29,5.3A1,1,0,0,1,5,42Z"/><path d="M25,48a1,1,0,0,1-.71-.29L19,42.41l-5.29,5.3a1,1,0,0,1-1.09.21A1,1,0,0,1,12,47V29a1,1,0,0,1,2,0V44.59l4.29-4.3a1,1,0,0,1,1.42,0L24,44.59V25a1,1,0,0,1,2,0V47a1,1,0,0,1-.62.92A.84.84,0,0,1,25,48Z"/></g></g></svg>