<svg xmlns="http://www.w3.org/2000/svg" viewBox="0 0 48 48"><defs><style>.cls-1{fill:#fff;}</style></defs><title>Asset 3</title><g id="Layer_2" data-name="Layer 2"><g id="Icons"><path class="cls-1" d="M9,37a1,1,0,0,1-1-1V34c0-4.43,5.11-8,9.34-8H20a1,1,0,0,1,0,2H17.34C14,28,10,30.77,10,34v2A1,1,0,0,1,9,37Z"/><path class="cls-1" d="M39,37a1,1,0,0,1-1-1V34a6.31,6.31,0,0,0-6.29-6H28a1,1,0,0,1,0-2h3.71A8.36,8.36,0,0,1,40,34v2A1,1,0,0,1,39,37Z"/><path class="cls-1" d="M24,29c-4.71,0-8-2.95-8-7.17V12a7.83,7.83,0,0,1,8-8,7.83,7.83,0,0,1,8,8v9.83C32,26.05,28.71,29,24,29ZM24,6a5.8,5.8,0,0,0-6,6v9.83C18,25.4,21,27,24,27s6-1.6,6-5.17V12A5.8,5.8,0,0,0,24,6Z"/><path class="cls-1" d="M13,14a1,1,0,0,1-1-1V12a12,12,0,0,1,24,0,1,1,0,0,1-2,0A10.13,10.13,0,0,0,24,2,10.13,10.13,0,0,0,14,12v1A1,1,0,0,1,13,14Z"/><path class="cls-1" d="M17,22H13c-2.21,0-3-.79-3-3V15c0-2.21.79-3,3-3h4a1,1,0,0,1,1,1v8A1,1,0,0,1,17,22Zm-4.9-2H16V14H13c-.72,0-.9.07-.93.1A3.16,3.16,0,0,0,12,15v4a2.41,2.41,0,0,0,.1,1Z"/><path class="cls-1" d="M35,22H31a1,1,0,0,1-1-1V13a1,1,0,0,1,1-1h4c2.21,0,3,.79,3,3v4C38,21.21,37.21,22,35,22Zm-3-2h3c.72,0,.9-.07.93-.1A3.16,3.16,0,0,0,36,19V15c0-.72-.07-.9-.1-.93A3.25,3.25,0,0,0,35,14H32Z"/><path class="cls-1" d="M47,48H1a1,1,0,0,1-1-1V41a1,1,0,0,1,1-1H47a1,1,0,0,1,1,1v6A1,1,0,0,1,47,48ZM2,46H46V42H2Z"/><path class="cls-1" d="M21,42H5a1,1,0,0,1-1-1V37a1,1,0,0,1,1-1H21a1,1,0,0,1,1,1v4A1,1,0,0,1,21,42ZM6,40H20V38H6Z"/><path class="cls-1" d="M43,42H27a1,1,0,0,1-1-1V37a1,1,0,0,1,1-1H43a1,1,0,0,1,1,1v4A1,1,0,0,1,43,42ZM28,40H42V38H28Z"/><path class="cls-1" d="M18,15a1,1,0,0,1,0-2c2.3,0,7-1.39,7-3a1,1,0,0,1,2,0,1.49,1.49,0,0,0,.54.8A4.78,4.78,0,0,0,30.92,12a1,1,0,1,1,.16,2,6.77,6.77,0,0,1-4.9-1.73l-.11-.11C24.08,14.25,19.48,15,18,15Z"/></g></g></svg>