
<svg width="238px" height="221px" viewBox="0 0 238 221" version="1.1" xmlns="http://www.w3.org/2000/svg" xmlns:xlink="http://www.w3.org/1999/xlink">
    <!-- Generator: Sketch 46.2 (44496) - http://www.bohemiancoding.com/sketch -->
    <desc>Created with Sketch.</desc>
    <defs>
        <polygon id="path-1" points="9.68116646e-15 178.2662 9.68116646e-15 0.634 237.6 0.634 237.6 178.2662"></polygon>
        <polygon id="path-3" points="33.9106 34 0.2376 34 0.2376 0.3285 33.9106 0.3285 33.9106 34"></polygon>
        <polygon id="path-5" points="33.8358 34 0.1698 34 0.1698 0.3285 33.8358 0.3285 33.8358 34"></polygon>
    </defs>
    <g id="Page-1" stroke="none" stroke-width="1" fill="none" fill-rule="evenodd">
        <g transform="translate(0.000000, -1.000000)">
            <g id="Group-3" transform="translate(0.000000, 0.366000)">
                <mask id="mask-2" fill="white">
                    <use xlink:href="#path-1"></use>
                </mask>
                <g id="Clip-2"></g>
                <path d="M228.6595,39.3412 L56.2105,26.3862 L46.3565,0.6332 L9.0155,0.6332 C4.0385,0.6332 -0.0005,4.6682 -0.0005,9.6482 C-0.0005,14.6272 4.0385,18.6592 9.0155,18.6592 L33.9515,18.6592 L72.5245,119.4942 C62.6145,123.2562 49.1685,130.9622 49.1685,144.9602 C49.1685,169.4032 70.2375,178.2662 84.4015,178.2662 L220.4295,178.2662 C225.4065,178.2662 229.4435,174.2252 229.4435,169.2482 C229.4435,164.2702 225.4065,160.2362 220.4295,160.2362 L84.4015,160.2362 C82.6425,160.2362 67.1925,159.8062 67.1925,144.9602 C67.1925,141.2062 77.6235,135.9592 86.2415,134.1402 L96.6105,131.9732 L222.1755,113.0992 C227.5545,112.3042 232.3025,107.2582 232.7985,101.8492 L237.5585,49.8712 C238.0555,44.4652 234.0665,39.7522 228.6595,39.3412" id="Fill-1" fill="#FFFFFF" mask="url(#mask-2)"></path>
            </g>
            <g id="Group-6" transform="translate(71.000000, 187.366000)">
                <mask id="mask-4" fill="white">
                    <use xlink:href="#path-3"></use>
                </mask>
                <g id="Clip-5"></g>
                <path d="M0.2376,17.1595 C0.2376,26.4585 7.7776,34.0005 17.0706,34.0005 C26.3726,34.0005 33.9106,26.4585 33.9106,17.1595 C33.9106,7.8645 26.3726,0.3285 17.0706,0.3285 C7.7776,0.3285 0.2376,7.8645 0.2376,17.1595" id="Fill-4" fill="#FFFFFF" mask="url(#mask-4)"></path>
            </g>
            <g id="Group-9" transform="translate(185.000000, 187.366000)">
                <mask id="mask-6" fill="white">
                    <use xlink:href="#path-5"></use>
                </mask>
                <g id="Clip-8"></g>
                <path d="M0.1698,17.1595 C0.1698,26.4585 7.7068,34.0005 17.0108,34.0005 C26.2998,34.0005 33.8358,26.4585 33.8358,17.1595 C33.8358,7.8645 26.2998,0.3285 17.0108,0.3285 C7.7068,0.3285 0.1698,7.8645 0.1698,17.1595" id="Fill-7" fill="#FFFFFF" mask="url(#mask-6)"></path>
            </g>
        </g>
    </g>
</svg>
