<svg id="Layer_1" data-name="Layer 1" xmlns="http://www.w3.org/2000/svg" viewBox="0 0 314.21 293.57"><defs><style>.cls-1{fill:#fff;}.cls-1,.cls-2{fill-rule:evenodd;}.cls-2{fill:#baccda;}</style></defs><title>disney</title><polygon class="cls-1" points="121.45 100.82 314.21 100.82 314.21 293.57 121.45 293.57 121.45 100.82 121.45 100.82"/><path class="cls-2" d="M683,354.13a5.58,5.58,0,0,1,3.45,1.38,4.7,4.7,0,0,1,1,5c-2.42,5-8.16,8.28-12.08,9.38a13.71,13.71,0,0,1-7.45-.27c-1,.62-1.91,2.62-3.18,1.79-1.83-1.43-.24-3.67-1.3-5.26-.22-.32-.77-.35-1-.88-1.45-3.18.34-6.21,2.34-8.63,3.34-3.72,12.91-7.87,18.22-2.48Zm-11.11,2.48a9.27,9.27,0,0,0-5.11,2.48c-1.13,1.33-1.86,2.63-1.17,4,2.42-1.8,3.59-4.28,6.28-5.8,0-.28.42-.48,0-.69Zm11.25.69c-4.76-.41-8.35,3.18-11.73,6.63-.21.55-1.45,1.17-.48,1.79a15.69,15.69,0,0,0,12.21-3.93c1-.9,1.66-2.07,1.18-3.32a2.44,2.44,0,0,0-1.18-1.17Z" transform="translate(-588.83 -345.68)"/><path class="cls-2" d="M724.37,377.87c2.2,5.38,4.07,13.87,0,19.05-1.11,1.24-3,2.38-4.28,1.45-4.56-3.66-6.49-8.91-9.32-13.6-.42-.21-.42.34-.62.55-1,4.76.89,11-2.35,14.7a2.48,2.48,0,0,1-2.83-1.65c-1.59-4.9.07-10,.48-14.91,1-2.49,1.38-5.39,3.52-7.25,3.46,1.38,5.11,5.25,7.11,8.08,1.45,2.14,2.63,4.55,4.28,6.48,1.45-.62.74-2.51.69-3.65a88.61,88.61,0,0,0-3-12.91c-.06-1.1-.69-3,.49-3.66,3.1,1.38,4.42,4.63,5.8,7.32Z" transform="translate(-588.83 -345.68)"/><path class="cls-2" d="M703.52,376.21A2.88,2.88,0,0,1,702,378.7c-6.62,1-14,.41-20.22,2.48-.21.76.69.9,1.17,1.11,5.32.82,10.91,1,16.09,2.34,2.73.7,3.72,3.94,3.93,6.63a7,7,0,0,1-2.76,6.14c-5.11,3.24-12.91,3.11-18.08.14-2-1.11-3.87-2.9-4-5.11a4.15,4.15,0,0,1,2-3.8c5-2,11.12-.89,15.4,1.66.27,1.38-1.22,1.31-1.94,1.8-4.76,2.76-8.35-3.11-12.77-1-.62.41-1.07,1.57-.34,1.93,5.45,2.42,11.53.69,16.91-.83a2.15,2.15,0,0,0,1.45-1.45c-.21-2.2-2.69-2.69-4.28-3.31-4.69-1.17-9.87-1.17-14.91-1.66a3.62,3.62,0,0,1-2.48-1.65c-.56-1.66-.56-3.94.69-5.32,6.42-5.66,16.15-5.17,24.29-3.65.55.2,1.17.41,1.38,1Z" transform="translate(-588.83 -345.68)"/><path class="cls-2" d="M673.36,378.83a168.32,168.32,0,0,1,.83,19.74c-.14.9-1.17,1.11-1.86,1.45-1.11.21-2.54,0-3-.62-1.59-2.55-1-6-1.18-9.11.21-4.9.14-10.21,1.52-14.77.27-.66,1-1.24,1.66-.83,1.66.83,1.93,2.49,2,4.14Z" transform="translate(-588.83 -345.68)"/><path class="cls-2" d="M750,377.87c.33.56.68,1.42,0,1.79-3.11,1.38-7.32.76-10.9,1.18a3.58,3.58,0,0,0-1.38,3.45c.34.2.65.52,1,.48,2.21.14,5.52-1,7,1,.36.62,0,2.92-1,3-2.7.35-7.12-.34-8.42.35-1.66,1.1-1.52,3.24-2.14,5,1.17.76,2.4,0,3.79-.21,2.56-.41,5.39-1.17,7.94-.62.48.9,1.17,1.86.69,3-4.35,3.45-10,7-15.94,4.48-2.25-1-3.25-4.41-2.49-7.31.48-2.07,2.62-4.08,1.31-6.28a1.66,1.66,0,0,1,1.18-2c2.27,0,1.79-2.82,3-4.14-1.31-1.45-4.62-1.38-4.28-4.28,1.59-.82,3.52-.55,5.32-.82a41.86,41.86,0,0,1,12.77-.83c.83.17,1.93,1.79,2.62,2.83Z" transform="translate(-588.83 -345.68)"/><path class="cls-2" d="M651.48,362.13c6.37,5.21,14.63,14.08,13.6,24.3-1.24,8.07-9.8,14.14-17.05,16.08-7,2.07-15.87,1.86-23,.2-.48,1.32-1,2.9-2.49,3.46a3.25,3.25,0,0,1-3-.49c-2.14-2-.42-5.86-3.52-7.11-6.08-2.55-12.63-7.59-15.74-13.8a3.72,3.72,0,0,1,.83-3.45c4.76-3.8,10.76-5.32,16.77-6.49.34.14.21-.34.48-.48.35-4.14.49-8.35,1.8-12.08a1.09,1.09,0,0,1,1.52-.35c3.79,2.9,2,8.36,3.65,12.29,7.25.35,14.5.69,20.23,4.76a6.29,6.29,0,0,1,1.79,6.35,5.29,5.29,0,0,1-4.49,3.11c-1.24,0-3.58.12-3.45-.83s4.22-2.5,3-3.8c-1.8-1.86-10.82-3-16.41-3.65-.69-.14-1.33.06-1.33.82-.13,5.25-.55,11,.35,16.08a1.23,1.23,0,0,0,.83.83c9.87,1.59,20.29.69,28-5,3.59-2.9,4.76-7,4.14-11.45-3.11-12.5-16.15-20-26.85-24.85a75.46,75.46,0,0,0-34.3-6.28c-2,.14-5.09.82-5.11,1.52s3.53.48,3.11,1.79-4,.54-5.11.21-1-1.86-.69-2.83c2.69-4.76,10.2-5.15,13.6-5.31,18.77-.49,36.92,6.66,48.86,16.42Zm-33.82,18.5a42.83,42.83,0,0,0-14.22,2.21c-.89.34-2,1.31-1.31,2.48a22.83,22.83,0,0,0,6.77,5.8c2.4,1.4,5.59,3.17,8.49,3.59a80.06,80.06,0,0,0,.62-13.53c-.28-.14,0-.41-.35-.55Z" transform="translate(-588.83 -345.68)"/><path class="cls-2" d="M760.32,374.35c-.2,6-5.79,9.73-5.79,15.73.2.21.34.49.62.35,4.48-4.9,8.9-11.87,15.46-13.94,1.72-.14,3.29,1.36,3.93,2.48a15.07,15.07,0,0,1-1.45,15.12c-3.28,4.06-9,8.14-15.46,7.45A88.92,88.92,0,0,0,752,422.38c-.55,1.45-1.86.14-2.69-.13-5.59-4.42-1-16.11-.62-17.6s1.87-5,3-7.94c-2.63-4.69-1-10.35,1.17-14.7a29.27,29.27,0,0,1,6.63-8,.91.91,0,0,1,.82.35Zm11.12,7.45c-.83-.14-1.18,1-1.87,1.18-3.17,3.58-6.35,7.17-7.93,11.45,2.13.28,3.93-1.1,5.79-1.86a10.08,10.08,0,0,0,5-9.11c-.14-.62-.69-1.11-1-1.66Z" transform="translate(-588.83 -345.68)"/></svg>