<svg xmlns="http://www.w3.org/2000/svg" viewBox="0 0 187.1 77.37"><defs><style>.cls-1{fill:#baccda;fill-rule:evenodd;}</style></defs><title>diz</title><g id="Layer_2" data-name="Layer 2"><g id="Layer_1-2" data-name="Layer 1"><path class="cls-1" d="M94.12,8.44a5.75,5.75,0,0,1,3.45,1.38,4.73,4.73,0,0,1,1,5c-2.42,5-8.16,8.29-12.08,9.39a13.65,13.65,0,0,1-7.46-.28c-1,.62-1.91,2.63-3.17,1.8-1.83-1.43-.25-3.67-1.3-5.26-.22-.33-.77-.35-1-.88-1.45-3.18.35-6.22,2.35-8.63,3.33-3.72,12.91-7.87,18.22-2.49ZM83,10.93a9.11,9.11,0,0,0-5.11,2.48c-1.14,1.33-1.86,2.63-1.17,4,2.41-1.8,3.59-4.28,6.28-5.8,0-.28.41-.48,0-.69Zm11.25.69c-4.76-.42-8.35,3.17-11.74,6.62-.2.56-1.44,1.18-.48,1.8A15.68,15.68,0,0,0,94.26,16.1c1-.89,1.65-2.07,1.17-3.31a2.46,2.46,0,0,0-1.17-1.17Z"/><path class="cls-1" d="M135.53,32.19c2.21,5.38,4.07,13.87,0,19-1.1,1.25-3,2.39-4.28,1.45-4.55-3.65-6.49-8.9-9.32-13.59-.41-.21-.41.34-.62.55-1,4.76.9,11-2.34,14.7a2.47,2.47,0,0,1-2.83-1.66c-1.59-4.9.07-10,.48-14.9,1-2.49,1.38-5.39,3.52-7.25,3.45,1.38,5.11,5.24,7.11,8.07,1.45,2.14,2.62,4.56,4.28,6.49,1.45-.62.73-2.51.69-3.66a90.11,90.11,0,0,0-3-12.9c-.07-1.11-.69-3,.48-3.66,3.11,1.38,4.42,4.62,5.8,7.32Z"/><path class="cls-1" d="M114.69,30.53A2.86,2.86,0,0,1,113.17,33c-6.63,1-14,.42-20.22,2.49-.21.76.69.9,1.17,1.1,5.31.83,10.9,1,16.08,2.35,2.74.7,3.73,3.93,3.93,6.63a7,7,0,0,1-2.76,6.14c-5.1,3.24-12.9,3.1-18.08.14-2-1.11-3.86-2.9-4-5.11a4.12,4.12,0,0,1,2-3.8c5-2,11.11-.89,15.39,1.66.28,1.38-1.22,1.3-1.93,1.79-4.76,2.76-8.35-3.1-12.77-1-.62.41-1.07,1.57-.34,1.93,5.45,2.42,11.52.69,16.9-.83A2.17,2.17,0,0,0,110,45.09c-.2-2.21-2.69-2.69-4.28-3.31-4.69-1.17-9.87-1.17-14.9-1.66a3.64,3.64,0,0,1-2.49-1.65c-.55-1.66-.55-3.94.69-5.32,6.42-5.66,16.15-5.17,24.3-3.66.55.21,1.17.42,1.38,1Z"/><path class="cls-1" d="M84.53,33.15a168.35,168.35,0,0,1,.82,19.74c-.13.9-1.17,1.11-1.86,1.45-1.1.21-2.53,0-3-.62-1.58-2.55-1-6-1.17-9.11.21-4.9.14-10.22,1.52-14.77.26-.66,1-1.24,1.65-.83,1.66.83,1.94,2.49,2,4.14Z"/><path class="cls-1" d="M161.21,32.19c.33.55.67,1.42,0,1.79-3.11,1.38-7.32.76-10.91,1.17a3.62,3.62,0,0,0-1.38,3.45c.35.21.66.53,1,.49,2.2.14,5.52-1,7,1,.35.62-.05,2.92-1,3-2.69.35-7.12-.34-8.42.35-1.66,1.1-1.52,3.24-2.14,5,1.17.75,2.41,0,3.8-.21,2.55-.42,5.38-1.18,7.93-.62.49.89,1.18,1.86.69,3-4.34,3.46-10,7-15.94,4.49-2.24-1-3.24-4.42-2.48-7.32.48-2.07,2.62-4.07,1.31-6.28a1.64,1.64,0,0,1,1.17-2c2.28,0,1.8-2.83,3-4.14-1.31-1.45-4.63-1.38-4.28-4.28,1.59-.83,3.52-.55,5.31-.83a41.87,41.87,0,0,1,12.77-.82c.83.16,1.94,1.79,2.63,2.83Z"/><path class="cls-1" d="M62.65,16.45C69,21.66,77.28,30.53,76.24,40.74c-1.24,8.08-9.8,14.15-17,16.09-7,2.07-15.88,1.86-23.06.2-.48,1.31-1,2.9-2.48,3.45a3.23,3.23,0,0,1-3-.48c-2.14-2-.41-5.87-3.52-7.11-6.07-2.55-12.63-7.59-15.73-13.8a3.68,3.68,0,0,1,.82-3.45C17,31.84,23,30.32,29,29.15c.35.14.21-.35.49-.48.34-4.15.48-8.36,1.79-12.08a1.08,1.08,0,0,1,1.52-.35c3.8,2.9,2,8.35,3.66,12.29,7.25.34,14.49.69,20.22,4.76a6.3,6.3,0,0,1,1.8,6.35A5.3,5.3,0,0,1,54,42.75c-1.24,0-3.59.12-3.45-.83s4.22-2.5,3-3.8c-1.81-1.86-10.83-3-16.42-3.66-.69-.13-1.32.07-1.32.83-.14,5.25-.55,11,.34,16.08a1.25,1.25,0,0,0,.83.83c9.87,1.59,20.29.69,28-5,3.59-2.9,4.77-7,4.14-11.46C66,23.28,53,15.76,42.29,10.93A75.5,75.5,0,0,0,8,4.65c-2,.14-5.08.82-5.1,1.52S6.41,6.64,6,8,2,8.5.88,8.17-.09,6.3.19,5.34C2.88.58,10.39.19,13.78,0,32.55-.46,50.71,6.69,62.65,16.45ZM28.83,35a42.83,42.83,0,0,0-14.22,2.21c-.9.34-2,1.31-1.31,2.48a22.79,22.79,0,0,0,6.76,5.8c2.41,1.39,5.59,3.17,8.49,3.59a80.06,80.06,0,0,0,.62-13.53c-.27-.14,0-.42-.34-.55Z"/><path class="cls-1" d="M171.49,28.67c-.21,6-5.8,9.73-5.8,15.73.21.21.35.49.62.35,4.49-4.9,8.91-11.87,15.46-13.94,1.73-.14,3.29,1.36,3.94,2.48a15.12,15.12,0,0,1-1.45,15.12c-3.28,4.06-9,8.14-15.46,7.45a88.3,88.3,0,0,0-5.59,20.84c-.55,1.45-1.87.14-2.69-.14-5.6-4.41-1-16.11-.63-17.6s1.88-5,3-7.93c-2.62-4.7-1-10.35,1.18-14.7a29.23,29.23,0,0,1,6.62-8,.92.92,0,0,1,.83.35Zm11.11,7.45c-.83-.14-1.17,1-1.86,1.17-3.18,3.59-6.35,7.18-7.94,11.46,2.14.28,3.93-1.1,5.8-1.86a10.12,10.12,0,0,0,5-9.11c-.14-.62-.69-1.11-1-1.66Z"/></g></g></svg>