<svg xmlns="http://www.w3.org/2000/svg" viewBox="0 0 175.75 75.65"><defs><style>.cls-1{fill:#bbccda;fill-rule:evenodd;}</style></defs><title>fox</title><g id="Layer_2" data-name="Layer 2"><g id="Layer_1-2" data-name="Layer 1"><path class="cls-1" d="M46.19,37.94A36.31,36.31,0,0,1,82.31,1.36c19.91,0,36,16.36,36,36.58s-16.06,36.57-36,36.57A36.26,36.26,0,0,1,46.19,37.94ZM0,75.65V0H45.36l1.36,20.75H21.35v9.92H42.1V51.11H21.35V75.65Zm175.75-.23L153,36.35,173.78.3H150.84L141.6,16.36,132.21.3h-23.4l21,36.27L107.45,75.42h22.94l10.83-18.78,11,18.78ZM88.52,52.93v-30a6.37,6.37,0,0,0-6.21-6.58c-3.26,0-6.06,3-6.06,6.58v30a6.19,6.19,0,0,0,6.06,6.13,5.9,5.9,0,0,0,6.21-6.13Z"/></g></g></svg>