<svg id="Lager_1" data-name="Lager 1" xmlns="http://www.w3.org/2000/svg" viewBox="0 0 423.24 29.78"><defs><style>.cls-1{fill:#baccda;fill-rule:evenodd;}</style></defs><title>satt</title><path class="cls-1" d="M87.81,428.33c-.16-.82,0-1.28.45-1.28.58,0,.58.5.78,1.36a8.78,8.78,0,0,0,8.64,6.16c3.9,0,7.72-2.18,7.72-6.5,0-7.93-16.68-3.49-16.68-14.22,0-5.22,4.4-7.73,9.12-7.73,5,0,6.33,1.48,6.91,1.48.37,0,.45-.45.86-.45.25,0,.45.12.49.57l.62,5.59c0,.33,0,.62-.45.62s-.74-.87-.87-1.23a7.84,7.84,0,0,0-7.84-5.35c-3.25,0-6.7,1.56-6.7,5.35,0,7.72,16.68,3.2,16.68,14.55,0,3.45-2.42,8.64-11.75,8.64-3,0-6.78-1.53-6.94-2.27l-1-5.29Z" transform="translate(-87.76 -406.12)"/><path class="cls-1" d="M124.2,414.06c.25-.44.46-.44.66,0l4,8.91c.21.48.25.74-.65.74H120.1c-.53,0-.82-.15-.53-.66l4.63-9Zm7.76,15.7a14.66,14.66,0,0,1,1.28,3.53c0,1.41-2.47,1-2.47,1.92,0,.37.66.37.9.37,1.11,0,2.22-.16,3.33-.16,1.68,0,3.37.16,5.05.16.29,0,.57,0,.57-.33,0-.92-2.37-.11-3.61-1.81a23.18,23.18,0,0,1-2-4.23l-8.54-19c-.12-.29-.41-1.36-.86-1.36s-.66.59-3.08,5.24l-9.83,18.85c-1.06,2.11-3,1.49-3,2.26a.37.37,0,0,0,.36.41c1.07,0,2.18-.16,3.29-.16s2.3.16,3.45.16c.53,0,1.11.11,1.11-.56,0-1-2.92.15-2.92-2.44a3.57,3.57,0,0,1,.29-1.3l2.63-5.19c.41-.78,1.15-.78,1.93-.78h9c1.15,0,1.4.56,1.81,1.41l1.32,3Z" transform="translate(-87.76 -406.12)"/><path class="cls-1" d="M156.15,414.06c.24-.44.45-.44.65,0l4,8.91c.2.48.24.74-.66.74H152c-.53,0-.82-.15-.53-.66l4.64-9Zm7.76,15.7a14.6,14.6,0,0,1,1.27,3.53c0,1.41-2.46,1-2.46,1.92,0,.37.65.37.9.37,1.11,0,2.21-.16,3.32-.16,1.69,0,3.37.16,5.05.16.29,0,.58,0,.58-.33,0-.92-2.38-.11-3.61-1.81a22.6,22.6,0,0,1-2.06-4.23l-8.54-19c-.12-.29-.41-1.36-.86-1.36s-.65.59-3.08,5.24l-9.82,18.85c-1.07,2.11-3,1.49-3,2.26a.37.37,0,0,0,.37.41c1.06,0,2.17-.16,3.28-.16s2.3.16,3.45.16c.54,0,1.11.11,1.11-.56,0-1-2.91.15-2.91-2.44a3.59,3.59,0,0,1,.28-1.3l2.63-5.19c.41-.78,1.15-.78,1.93-.78h9c1.15,0,1.4.56,1.81,1.41l1.33,3Z" transform="translate(-87.76 -406.12)"/><path class="cls-1" d="M180.55,413.12c0-.26.17-1.67-.41-1.71h-6.67c-2.53,0-2.62.56-3.35,2.6-.12.36-.17.85-.7.85a.45.45,0,0,1-.41-.45l.45-3.59c0-.44,0-1.44.74-1.44,3.19,0,6.34.16,11.63.16,7.45,0,11.24-.16,12.06-.16s1.14.22,1.19,1.07l.2,3c0,.37.08.82-.45.82-1.51,0,.69-2.82-3.49-2.82h-5.89c-1.85,0-1.65-.14-1.65,1.82V432.1c0,3.11,3.34,1.89,3.34,3,0,.12,0,.45-.37.45-1,0-2.14-.16-3.34-.16-4.59,0-5.37.16-5.62.16s-.49-.11-.49-.48c0-.89,3.23-.52,3.23-2.74V413.12Z" transform="translate(-87.76 -406.12)"/><path class="cls-1" d="M211.76,409.06c7.72,0,9.85,2.85,11,2.85.33,0,.58-.37,1-.37s.45.59.57,3c.09,2,.45,3.18-.24,3.18-.49,0-.78-1-1-1.22-2.54-4-5.46-6.37-10.75-6.37-8,0-11.87,4.82-11.87,11.7,0,6.45,4.11,12.89,12,12.89,6.45,0,10.47-3.7,11.09-5.4a.67.67,0,0,1,.57-.49.39.39,0,0,1,.37.41l-.94,3.71c0,.14-3,2.9-12.2,2.9C203,435.85,197,430.65,197,423s6.12-13.92,14.78-13.92Z" transform="translate(-87.76 -406.12)"/><path class="cls-1" d="M230.26,412.56c0-2.7-3.57-2-3.57-2.77,0-.33.32-.41.65-.41,1.52,0,3,.16,4.52.16,1.28,0,2.55-.16,3.82-.16.7,0,.78.22.78.37,0,.74-3,0-3,2.81v8c0,.51,0,.66.61.66h15c.41,0,.33-.92.33-1.07v-7.57c0-2.55-3.07-1.92-3.07-2.77,0-.22.08-.41.69-.41,1.35,0,3.49.16,4.27.16,1.52,0,2.14-.16,3-.16,1.07,0,1.15.37,1.15.59,0,.67-2.75,0-2.75,2.59v19.61c0,2.71,3.74,2,3.74,3a.52.52,0,0,1-.46.45c-1.1,0-2.38-.16-3.86-.16-2.63,0-3.78.16-4.56.16-.36,0-1,.11-1-.49,0-.88,2.87-.36,2.87-2.7v-8.88c0-.6.16-.93-.33-.93H234c-.49,0-.49.22-.49.63v9.22c0,2.52,3.89,1.7,3.89,2.85,0,.19-.28.3-.65.3-.54,0-3.53-.16-5.71-.16a22,22,0,0,0-3.53.16c-.33,0-.46-.19-.46-.56,0-1.07,3.21.15,3.21-3.52V412.56Z" transform="translate(-87.76 -406.12)"/><path class="cls-1" d="M262.57,412.56c0-2.7-3.32-2-3.32-2.77,0-.33.08-.41.41-.41,1.52,0,3,.16,4.52.16,1.28,0,2.55-.16,3.82-.16.66,0,.78.08.78.37,0,.89-2.95,0-2.95,2.81v19.87c0,2.52,3.65,1.67,3.65,2.78,0,.26-.12.37-.82.37-1,0-2.71-.16-4.48-.16-2.51,0-3.37.16-3.95.16-.74,0-.86-.19-.86-.56,0-1.07,3.2.15,3.2-3.51V412.56Z" transform="translate(-87.76 -406.12)"/><path class="cls-1" d="M296.9,433.49c-5.31,0-10.52-4.61-10.52-10.09,0-2.39,1.89-5.62,4.47-5.62,1.48,0,4.61,5.54,13.4,13.08a11.4,11.4,0,0,1-7.35,2.63Zm4.23-25.1c0-.37.08-1.15-.5-1.15-.36,0-.53.37-.74.37a9.88,9.88,0,0,0-4.39-1.11c-3.33,0-6.66,1.84-6.66,5.58a7.63,7.63,0,0,0,1.89,4.68c-4.39.93-6.55,4.33-6.55,8.74,0,6.43,5.28,10.4,11.32,10.4a14,14,0,0,0,10.11-4.14c2.25,1.79,4.5,4.14,7.58,4.14,1.36,0,3.41-.62,3.41-1.32a.32.32,0,0,0-.33-.33,9.7,9.7,0,0,1-1.52.21c-1.84,0-5.7-4-7.25-5.22a19.78,19.78,0,0,0,1.92-7.57c.2-1.81,1.76-1.36,1.76-2,0-.41-.2-.49-.57-.49-1.4,0-2.09.16-2.62.16s-2.06-.16-3.58-.16c-.33,0-.94-.09-.94.36,0,1.32,3.86-.32,3.86,4.48,0,1.73-.16,3.21-1.19,4.36-8.87-8.22-15-14.72-15-17.47a3.29,3.29,0,0,1,3.41-3.34c2.51,0,4.65,2.18,5.63,4.32.13.25.25.74.62.74.16,0,.41-.12.41-.32l-.12-3.91Z" transform="translate(-87.76 -406.12)"/><path class="cls-1" d="M329.33,428.33c-.16-.82.05-1.28.45-1.28.58,0,.58.5.78,1.36a8.78,8.78,0,0,0,8.64,6.16c3.9,0,7.72-2.18,7.72-6.5,0-7.93-16.67-3.49-16.67-14.22,0-5.22,4.39-7.73,9.11-7.73,5,0,6.33,1.48,6.91,1.48.37,0,.45-.45.86-.45.25,0,.45.12.49.57l.62,5.59c0,.33,0,.62-.45.62s-.74-.87-.87-1.23a7.84,7.84,0,0,0-7.84-5.35c-3.25,0-6.7,1.56-6.7,5.35,0,7.72,16.68,3.2,16.68,14.55,0,3.45-2.42,8.64-11.75,8.64-3,0-6.78-1.53-6.94-2.27l-1-5.29Z" transform="translate(-87.76 -406.12)"/><path class="cls-1" d="M365.76,414.06c.24-.44.45-.44.66,0l4,8.91c.2.48.24.74-.66.74h-8.13c-.53,0-.82-.15-.53-.66l4.64-9Zm7.76,15.7a14.6,14.6,0,0,1,1.27,3.53c0,1.41-2.46,1-2.46,1.92,0,.37.65.37.9.37,1.11,0,2.22-.16,3.33-.16,1.68,0,3.36.16,5.05.16.28,0,.57,0,.57-.33,0-.92-2.38-.11-3.61-1.81a22,22,0,0,1-2.05-4.23l-8.54-19c-.13-.29-.41-1.36-.87-1.36s-.65.59-3.07,5.24l-9.83,18.85c-1.07,2.11-3,1.49-3,2.26a.37.37,0,0,0,.37.41c1.06,0,2.17-.16,3.28-.16s2.3.16,3.45.16c.54,0,1.11.11,1.11-.56,0-1-2.92.15-2.92-2.44a3.57,3.57,0,0,1,.29-1.3l2.63-5.19c.41-.78,1.15-.78,1.93-.78h9c1.15,0,1.4.56,1.81,1.41l1.33,3Z" transform="translate(-87.76 -406.12)"/><path class="cls-1" d="M397.7,414.06c.25-.44.45-.44.66,0l4,8.91c.21.48.25.74-.66.74H393.6c-.54,0-.83-.15-.54-.66l4.64-9Zm7.76,15.7a14.6,14.6,0,0,1,1.27,3.53c0,1.41-2.46,1-2.46,1.92,0,.37.66.37.9.37,1.11,0,2.22-.16,3.33-.16,1.68,0,3.36.16,5.05.16.28,0,.57,0,.57-.33,0-.92-2.38-.11-3.61-1.81a22,22,0,0,1-2.05-4.23l-8.54-19c-.13-.29-.41-1.36-.86-1.36s-.66.59-3.08,5.24l-9.83,18.85c-1.07,2.11-3,1.49-3,2.26a.37.37,0,0,0,.37.41c1.07,0,2.18-.16,3.28-.16s2.31.16,3.45.16c.54,0,1.11.11,1.11-.56,0-1-2.91.15-2.91-2.44a3.38,3.38,0,0,1,.29-1.3l2.62-5.19c.42-.78,1.15-.78,1.93-.78h9c1.15,0,1.39.56,1.8,1.41l1.33,3Z" transform="translate(-87.76 -406.12)"/><path class="cls-1" d="M422.07,413.12c0-.26.17-1.67-.41-1.71H415c-2.53,0-2.62.56-3.35,2.6-.13.36-.17.85-.7.85a.45.45,0,0,1-.41-.45l.45-3.59c0-.44,0-1.44.74-1.44,3.19,0,6.34.16,11.63.16,7.45,0,11.24-.16,12.06-.16s1.14.22,1.18,1.07l.21,3c0,.37.08.82-.45.82-1.52,0,.69-2.82-3.49-2.82H427c-1.85,0-1.65-.14-1.65,1.82V432.1c0,3.11,3.34,1.89,3.34,3,0,.12,0,.45-.37.45-1,0-2.14-.16-3.34-.16-4.6,0-5.37.16-5.62.16s-.49-.11-.49-.48c0-.89,3.23-.52,3.23-2.74V413.12Z" transform="translate(-87.76 -406.12)"/><path class="cls-1" d="M453.28,409.06c7.72,0,9.85,2.85,11,2.85.33,0,.58-.37,1-.37s.45.59.57,3c.09,2,.45,3.18-.24,3.18-.5,0-.78-1-.95-1.22-2.54-4-5.46-6.37-10.75-6.37-8,0-11.87,4.82-11.87,11.7,0,6.45,4.11,12.89,12,12.89,6.44,0,10.47-3.7,11.08-5.4a.7.7,0,0,1,.58-.49.39.39,0,0,1,.37.41l-.95,3.71c0,.14-2.95,2.9-12.19,2.9-8.42,0-14.45-5.2-14.45-12.87s6.12-13.92,14.78-13.92Z" transform="translate(-87.76 -406.12)"/><path class="cls-1" d="M471.78,412.56c0-2.7-3.57-2-3.57-2.77,0-.33.32-.41.65-.41,1.52,0,3,.16,4.52.16,1.28,0,2.55-.16,3.82-.16.7,0,.78.22.78.37,0,.74-3,0-3,2.81v8c0,.51,0,.66.61.66h15c.41,0,.33-.92.33-1.07v-7.57c0-2.55-3.07-1.92-3.07-2.77,0-.22.08-.41.69-.41,1.35,0,3.49.16,4.27.16,1.52,0,2.14-.16,3-.16,1.07,0,1.15.37,1.15.59,0,.67-2.75,0-2.75,2.59v19.61c0,2.71,3.74,2,3.74,3a.52.52,0,0,1-.46.45c-1.1,0-2.38-.16-3.86-.16-2.63,0-3.78.16-4.56.16-.37,0-1,.11-1-.49,0-.88,2.87-.36,2.87-2.7v-8.88c0-.6.16-.93-.33-.93H475.52c-.49,0-.49.22-.49.63v9.22c0,2.52,3.89,1.7,3.89,2.85,0,.19-.29.3-.65.3-.54,0-3.53-.16-5.71-.16a22,22,0,0,0-3.53.16c-.33,0-.46-.19-.46-.56,0-1.07,3.21.15,3.21-3.52V412.56Z" transform="translate(-87.76 -406.12)"/><path class="cls-1" d="M504.09,412.56c0-2.7-3.32-2-3.32-2.77,0-.33.08-.41.41-.41,1.52,0,3,.16,4.52.16,1.27,0,2.55-.16,3.82-.16.66,0,.78.08.78.37,0,.89-2.95,0-2.95,2.81v19.87c0,2.52,3.65,1.67,3.65,2.78,0,.26-.13.37-.82.37-.95,0-2.71-.16-4.48-.16-2.51,0-3.37.16-3.95.16-.74,0-.86-.19-.86-.56,0-1.07,3.2.15,3.2-3.51V412.56Z" transform="translate(-87.76 -406.12)"/></svg>