<?xml version="1.0" encoding="utf-8"?>
<!-- Generator: Adobe Illustrator 21.1.0, SVG Export Plug-In . SVG Version: 6.00 Build 0)  -->
<svg version="1.1" id="Layer_1" xmlns="http://www.w3.org/2000/svg" xmlns:xlink="http://www.w3.org/1999/xlink" x="0px" y="0px"
	 viewBox="0 0 2834.6 2834.6" style="enable-background:new 0 0 2834.6 2834.6;" xml:space="preserve">
<style type="text/css">
	.st0{fill:#FFFFFF;}
</style>
<path class="st0" d="M1995.4,1962.1l-276.2-305c33.5-39,60.5-82.7,80.6-130.3c26.1-61.7,39.3-127.1,39.3-194.6
	c0-67.5-13.2-133-39.3-194.6c-25.2-59.5-61.2-113-107.1-158.9c-45.9-45.9-99.4-82-158.9-107.1c-61.7-26.1-127.1-39.3-194.6-39.3
	c-67.5,0-133,13.2-194.6,39.3c-59.5,25.2-113,61.2-158.9,107.1c-45.9,45.9-82,99.4-107.1,158.9c-26.1,61.7-39.3,127.1-39.3,194.6
	c0,67.5,13.2,133,39.3,194.6c25.2,59.5,61.2,113,107.1,158.9c45.9,45.9,99.4,82,158.9,107.1c61.7,26.1,127.1,39.3,194.6,39.3
	c67.5,0,133-13.2,194.6-39.3c53.1-22.4,101.3-53.5,143.7-92.5l273.5,302L1995.4,1962.1z M1339.2,1772.3c-242.6,0-440-197.4-440-440
	c0-242.6,197.4-440,440-440s440,197.4,440,440C1779.2,1574.9,1581.8,1772.3,1339.2,1772.3z"/>
</svg>
