
<svg width="1157px" height="1170px" viewBox="0 0 1157 1170" version="1.1" xmlns="http://www.w3.org/2000/svg" xmlns:xlink="http://www.w3.org/1999/xlink">
   
   
    <g id="Page-1" stroke="none" stroke-width="1" fill="none" fill-rule="evenodd">
        <path d="M499.9,940 C257.3,940 59.9,742.601 59.9,500 C59.9,257.4 257.3,60 499.9,60 C742.5,60 939.9,257.4 939.9,500 C939.9,742.601 742.5,940 499.9,940 L499.9,940 Z M1156.1,1129.8 L879.9,824.8 C913.4,785.8 940.4,742.101 960.5,694.5 C986.6,632.8 999.799,567.4 999.799,499.9 C999.799,432.4 986.6,366.9 960.5,305.3 C935.299,245.8 899.299,192.3 853.4,146.4 C807.5,100.5 754,64.4 694.5,39.3 C632.799,13.2 567.4,0 499.9,0 C432.4,0 366.9,13.2 305.3,39.3 C245.8,64.5 192.3,100.5 146.4,146.4 C100.5,192.3 64.4,245.8 39.3,305.3 C13.2,367 0,432.4 0,499.9 C0,567.4 13.2,632.9 39.3,694.5 C64.5,754 100.5,807.5 146.4,853.4 C192.3,899.3 245.8,935.4 305.3,960.5 C367,986.601 432.4,999.8 499.9,999.8 C567.4,999.8 632.9,986.601 694.5,960.5 C747.6,938.101 795.799,907 838.2,868 L1111.7,1170 L1156.1,1129.8 Z" id="Fill-1" fill="#FFFFFF"></path>
    </g>
</svg>
